<?xml version="1.0" encoding="UTF-8"?>
<!DOCTYPE svg PUBLIC "-//W3C//DTD SVG 1.1//EN" "http://www.w3.org/Graphics/SVG/1.1/DTD/svg11.dtd">

<svg version="1.1" id="t8y-logo" xmlns="http://www.w3.org/2000/svg" xmlns:xlink="http://www.w3.org/1999/xlink" x="0px" y="0px" width="158px" height="91px" viewBox="0 0 158 91" enable-background="new 0 0 158 91" xml:space="preserve">
     <g>
         <path fill="#5F686A" d="M57.384,53.205c0,2.02-1.651,3.671-3.67,3.671h-4.309c-2.021,0-3.67-1.651-3.67-3.671v-4.309
             c0-2.019,1.649-3.67,3.67-3.67h4.309c2.019,0,3.67,1.651,3.67,3.67V53.205L57.384,53.205z"></path>
         <path fill="#5F686A" d="M57.384,76.503c0,2.02-1.651,3.669-3.67,3.669h-4.309c-2.021,0-3.67-1.649-3.67-3.669v-4.311
             c0-2.019,1.649-3.669,3.67-3.669h4.309c2.019,0,3.67,1.65,3.67,3.669V76.503L57.384,76.503z"></path>
         <path fill="#009FE3" d="M36.571,61.149c-1.446-0.489-2.486-1.867-2.486-3.479V37.248c0-2.02,1.651-3.669,3.669-3.669h12.638
             c-4.087-2.052-7.143-6.842-7.487-11.65H11.41c-2.019,0-3.67,1.652-3.67,3.67v4.31c0,2.019,1.651,3.67,3.67,3.67h7.357
             c2.019,0,3.669,1.649,3.669,3.669v11.33c0,3.552,1.472,6.772,3.832,9.092c2.308,2.264,5.461,3.671,8.928,3.671h1.375
             c0.03,0,0.056-0.025,0.056-0.057v-0.079C36.628,61.174,36.602,61.159,36.571,61.149L36.571,61.149z"></path>
         <path fill="#5F686A" d="M77.01,4.694h-4.311c-2.019,0-3.668,1.651-3.668,3.668v9.899c0,2.019-1.651,3.668-3.669,3.668h-4.31
             c-2.019,0-3.667-1.649-3.667-3.668V8.362c0-2.017-1.651-3.668-3.67-3.668h-4.309c-2.021,0-3.671,1.651-3.671,3.668v12.457
             c0,7.019,5.742,12.761,12.76,12.761h6.868c2.019,0,3.669,1.649,3.669,3.669v0.057H69.03v20.422c0,1.612-1.04,2.99-2.486,3.479
             c-0.03,0.01-0.057,0.025-0.057,0.056v0.08c0,0.03,0.025,0.056,0.056,0.056h1.375c3.468,0,6.62-1.407,8.928-3.671
             c2.36-2.319,3.833-5.539,3.833-9.091V8.362C80.679,6.345,79.027,4.694,77.01,4.694"></path>
     </g>
     <g>
         <path fill="#5F686A" d="M103.69,25.953v1.085h-2.217v4.542c0,0.62,0.388,1.055,1.008,1.055c0.496,0,0.729-0.031,1.519-0.233v0.977
             c-0.573,0.248-1.178,0.387-1.891,0.387c-1.209,0-1.953-0.744-1.953-2.124v-4.604h-1.163v-1.085h1.163v-2.108h1.317v2.108H103.69z"></path>
         <path fill="#5F686A" d="M109.533,27.767c1.318,0.744,2.59,1.597,2.59,3.101c0,1.674-1.551,2.899-3.705,2.899
             c-2.403,0-3.566-1.395-3.566-2.899s1.132-2.294,2.356-2.945c-1.054-0.667-1.938-1.458-1.938-2.744c0-1.473,1.317-2.667,3.302-2.667
             c2.062,0,3.132,1.255,3.132,2.635C111.704,26.418,110.681,27.131,109.533,27.767z M108.216,28.495
             c-1.038,0.604-1.892,1.302-1.892,2.496c0,0.822,0.884,1.612,2.155,1.612c1.209,0,2.171-0.868,2.171-1.644
             C110.65,29.829,109.472,29.193,108.216,28.495z M108.557,27.224c0.977-0.512,1.752-1.07,1.752-1.984
             c0-0.93-0.697-1.566-1.813-1.566c-0.821,0-1.829,0.434-1.829,1.488C106.666,26.046,107.519,26.635,108.557,27.224z"></path>
         <path fill="#5F686A" d="M114.229,25.953l2.108,5.953l2.093-5.953h1.333l-3.938,10.836h-1.333l1.132-3.116l-2.807-7.721H114.229z"></path>
         <path fill="#5F686A" d="M121.234,31.596c0.636,0,1.085,0.45,1.085,1.085c0,0.635-0.449,1.085-1.085,1.085s-1.085-0.45-1.085-1.085
             C120.149,32.045,120.599,31.596,121.234,31.596z"></path>
         <path fill="#5F686A" d="M129.295,27.271c-0.635-0.248-1.286-0.403-1.875-0.403c-1.364,0-2.543,0.76-2.543,2.884
             c0,1.845,1.07,2.915,2.573,2.915c0.636,0,1.411-0.217,2-0.45v1.008c-0.744,0.372-1.396,0.542-2.263,0.542
             c-2.232,0-3.706-1.488-3.706-4.015c0-2.589,1.86-4.031,3.923-4.031c0.573,0,1.317,0.124,1.891,0.356V27.271z"></path>
         <path fill="#5F686A" d="M130.533,29.751c0-2.496,1.535-4.031,3.736-4.031c2.016,0,3.736,1.256,3.736,4.015
             c0,2.496-1.535,4.031-3.736,4.031C132.254,33.766,130.533,32.511,130.533,29.751z M136.61,29.735c0-1.736-0.961-2.93-2.341-2.93
             c-1.364,0-2.341,0.806-2.341,2.945c0,1.736,0.961,2.93,2.341,2.93C135.634,32.681,136.61,31.875,136.61,29.735z"></path>
         <path fill="#5F686A" d="M144.484,33.534v-4.945c0-1.085-0.465-1.721-1.317-1.721c-0.667,0-1.287,0.217-1.907,0.667v6h-1.317v-7.581
             h1.163l0.154,0.558c0.714-0.449,1.458-0.791,2.295-0.791c0.744,0,1.396,0.356,1.783,0.946c0.759-0.465,1.736-0.946,2.759-0.946
             c1.333,0,2.248,1.07,2.248,2.698v5.116h-1.317v-4.945c0-1.085-0.465-1.721-1.318-1.721c-0.713,0-1.364,0.264-1.984,0.713
             c0.047,0.264,0.078,0.542,0.078,0.837v5.116H144.484z"></path>
     </g>
 </svg>